<svg width="20" height="20" xmlns="http://www.w3.org/2000/svg" version="1.1">
 <title/>
 <desc/>

 <g>
  <title>Layer 1</title>
  <g id="Page-1" fill-rule="evenodd" fill="none">
   <g id="Core" fill="#000000">
    <g id="star-half">
     <path id="Shape" d="m20,7.244l-7.191,-0.617l-2.809,-6.627l-2.809,6.627l-7.191,0.617l5.455,4.727l-1.635,7.029l6.18,-3.728l6.18,3.727l-1.635,-7.029l5.455,-4.726l0,0zm-10,6.152l0,-9.301l1.71,4.036l4.38,0.376l-3.322,2.878l0.996,4.281l-3.764,-2.27l0,0z"/>
    </g>
   </g>
  </g>
  <line stroke-linecap="undefined" stroke-linejoin="undefined" id="svg_3" y2="15.5625" x2="12.25" y1="7.8125" x1="12.375" stroke="#000" fill="none"/>
  <line stroke-linecap="undefined" stroke-linejoin="undefined" id="svg_4" y2="14.4375" x2="10.3125" y1="3.625" x1="10.125" stroke="#000" fill="none"/>
  <line stroke-linecap="undefined" stroke-linejoin="undefined" id="svg_5" y2="14.5625" x2="11.125" y1="5.375" x1="10.875" stroke="#000" fill="none"/>
  <line stroke-linecap="undefined" stroke-linejoin="undefined" id="svg_6" y2="14.8125" x2="11.5" y1="7.3125" x1="11.75" stroke="#000" fill="none"/>
  <line stroke-linecap="undefined" stroke-linejoin="undefined" id="svg_7" y2="16.0625" x2="12.625" y1="7.625" x1="12.25" stroke="#000" fill="none"/>
 </g>
</svg>